<svg width="18" height="15" viewBox="0 0 18 15" fill="none" xmlns="http://www.w3.org/2000/svg">
<path d="M16.157 3.722C16.1648 3.884 16.1677 4.04801 16.1677 4.21001C16.1677 9.20001 12.4533 14.952 5.6612 14.952C3.57456 14.952 1.63467 14.327 0 13.255C0.966889 13.3745 1.94734 13.2981 2.88532 13.0301C3.8233 12.7621 4.70041 12.3077 5.46652 11.693C4.69606 11.6781 3.94941 11.4175 3.33096 10.9476C2.71251 10.4776 2.25317 9.82188 2.01717 9.07201C2.57093 9.17786 3.14084 9.15565 3.68511 9.00701C2.84929 8.83376 2.09778 8.37044 1.55793 7.69557C1.01807 7.0207 0.723076 6.17578 0.722935 5.30401V5.25701C1.23574 5.54861 1.80926 5.71077 2.39576 5.73C1.61303 5.19659 1.05894 4.37792 0.846603 3.44111C0.634262 2.50429 0.779671 1.51996 1.25315 0.689005C2.18034 1.85547 3.33719 2.80951 4.64857 3.48916C5.95996 4.16881 7.39654 4.55887 8.865 4.63401C8.80147 4.35162 8.76963 4.06276 8.77011 3.77301C8.77011 3.27744 8.86561 2.78674 9.05116 2.32891C9.23671 1.87108 9.50867 1.45511 9.85152 1.10474C10.1944 0.754369 10.6014 0.476473 11.0493 0.286921C11.4972 0.0973684 11.9773 -0.00012633 12.4621 5.01386e-06C12.9673 -0.000837245 13.4673 0.104445 13.9311 0.309321C14.3949 0.514196 14.8125 0.814296 15.1582 1.191C15.9849 1.0237 16.7778 0.713958 17.503 0.275005C17.2272 1.14921 16.6501 1.89123 15.8791 2.36301C16.6111 2.2743 17.326 2.07408 18 1.76901C17.5049 2.52744 16.8806 3.18892 16.157 3.722V3.722Z" fill="#D2D2D2"/>
</svg>
